<mxfile host="app.diagrams.net" modified="2022-07-28T12:32:17.501Z" agent="5.0 (Macintosh; Intel Mac OS X 10_15_7) AppleWebKit/537.36 (KHTML, like Gecko) Chrome/103.0.0.0 Safari/537.36" etag="r7kEgFeHpTnRzOiRCv5v" version="20.2.2" type="github">
  <diagram id="prtHgNgQTEPvFCAcTncT" name="Page-1">
    <mxGraphModel dx="1377" dy="1965" grid="1" gridSize="10" guides="1" tooltips="1" connect="1" arrows="1" fold="1" page="1" pageScale="1" pageWidth="827" pageHeight="1169" math="0" shadow="0">
      <root>
        <mxCell id="0" />
        <mxCell id="1" parent="0" />
        <mxCell id="dNxyNK7c78bLwvsdeMH5-19" value="Pool" style="swimlane;html=1;childLayout=stackLayout;resizeParent=1;resizeParentMax=0;horizontal=0;startSize=20;horizontalStack=0;textDirection=rtl;" parent="1" vertex="1">
          <mxGeometry x="10" y="120" width="1170" height="480" as="geometry" />
        </mxCell>
        <mxCell id="dNxyNK7c78bLwvsdeMH5-20" value="pushTransaction&lt;br&gt;" style="swimlane;html=1;startSize=90;horizontal=0;flipV=1;flipH=0;textDirection=rtl;" parent="dNxyNK7c78bLwvsdeMH5-19" vertex="1">
          <mxGeometry x="20" width="1150" height="120" as="geometry">
            <mxRectangle x="20" width="670" height="140" as="alternateBounds" />
          </mxGeometry>
        </mxCell>
        <mxCell id="vQN2oS0xUp7O3IiYGW6Z-31" value="" style="edgeStyle=orthogonalEdgeStyle;rounded=0;orthogonalLoop=1;jettySize=auto;html=1;" edge="1" parent="dNxyNK7c78bLwvsdeMH5-20" source="vQN2oS0xUp7O3IiYGW6Z-27">
          <mxGeometry relative="1" as="geometry">
            <mxPoint x="510" y="70" as="targetPoint" />
          </mxGeometry>
        </mxCell>
        <mxCell id="vQN2oS0xUp7O3IiYGW6Z-27" value="SnspshtImpl0" style="shape=ext;double=1;rounded=0;whiteSpace=wrap;html=1;fillColor=#dae8fc;strokeColor=#6c8ebf;" vertex="1" parent="dNxyNK7c78bLwvsdeMH5-20">
          <mxGeometry x="319" y="50" width="130" height="40" as="geometry" />
        </mxCell>
        <mxCell id="vQN2oS0xUp7O3IiYGW6Z-30" value="" style="edgeStyle=orthogonalEdgeStyle;rounded=0;orthogonalLoop=1;jettySize=auto;html=1;" edge="1" parent="dNxyNK7c78bLwvsdeMH5-20" source="vQN2oS0xUp7O3IiYGW6Z-29" target="vQN2oS0xUp7O3IiYGW6Z-27">
          <mxGeometry relative="1" as="geometry" />
        </mxCell>
        <mxCell id="vQN2oS0xUp7O3IiYGW6Z-29" value="SessionOptional" style="shape=ext;double=1;rounded=0;whiteSpace=wrap;html=1;" vertex="1" parent="dNxyNK7c78bLwvsdeMH5-20">
          <mxGeometry x="120" y="30" width="120" height="80" as="geometry" />
        </mxCell>
        <mxCell id="vQN2oS0xUp7O3IiYGW6Z-28" value="SnspshtImpl1" style="shape=ext;double=1;rounded=0;whiteSpace=wrap;html=1;fillColor=#dae8fc;strokeColor=#6c8ebf;" vertex="1" parent="dNxyNK7c78bLwvsdeMH5-20">
          <mxGeometry x="510" y="50" width="130" height="40" as="geometry" />
        </mxCell>
        <mxCell id="vQN2oS0xUp7O3IiYGW6Z-1" value="generateBlock" style="swimlane;html=1;startSize=90;horizontal=0;" vertex="1" parent="dNxyNK7c78bLwvsdeMH5-19">
          <mxGeometry x="20" y="120" width="1150" height="120" as="geometry" />
        </mxCell>
        <mxCell id="dNxyNK7c78bLwvsdeMH5-21" value="pushBlock&lt;br&gt;" style="swimlane;html=1;startSize=90;horizontal=0;" parent="dNxyNK7c78bLwvsdeMH5-19" vertex="1">
          <mxGeometry x="20" y="240" width="1150" height="120" as="geometry" />
        </mxCell>
        <mxCell id="dNxyNK7c78bLwvsdeMH5-22" value="Lane 3" style="swimlane;html=1;startSize=90;horizontal=0;" parent="dNxyNK7c78bLwvsdeMH5-19" vertex="1">
          <mxGeometry x="20" y="360" width="1150" height="120" as="geometry" />
        </mxCell>
        <mxCell id="vQN2oS0xUp7O3IiYGW6Z-26" value="" style="shape=curlyBracket;whiteSpace=wrap;html=1;rounded=1;flipH=1;direction=south;" vertex="1" parent="1">
          <mxGeometry x="150" y="50" width="430" height="60" as="geometry" />
        </mxCell>
        <mxCell id="vQN2oS0xUp7O3IiYGW6Z-32" value="" style="edgeStyle=orthogonalEdgeStyle;rounded=0;orthogonalLoop=1;jettySize=auto;html=1;" edge="1" parent="1" source="vQN2oS0xUp7O3IiYGW6Z-33" target="vQN2oS0xUp7O3IiYGW6Z-34">
          <mxGeometry relative="1" as="geometry" />
        </mxCell>
        <mxCell id="vQN2oS0xUp7O3IiYGW6Z-33" value="SnspshtImpl0" style="shape=ext;double=1;rounded=0;whiteSpace=wrap;html=1;fillColor=#dae8fc;strokeColor=#6c8ebf;" vertex="1" parent="1">
          <mxGeometry x="870" y="-130" width="130" height="40" as="geometry" />
        </mxCell>
        <mxCell id="vQN2oS0xUp7O3IiYGW6Z-34" value="SnspshtImpl1" style="shape=ext;double=1;rounded=0;whiteSpace=wrap;html=1;fillColor=#dae8fc;strokeColor=#6c8ebf;" vertex="1" parent="1">
          <mxGeometry x="1040" y="-130" width="130" height="40" as="geometry" />
        </mxCell>
        <mxCell id="vQN2oS0xUp7O3IiYGW6Z-35" value="" style="edgeStyle=orthogonalEdgeStyle;rounded=0;orthogonalLoop=1;jettySize=auto;html=1;startArrow=none;" edge="1" parent="1" source="vQN2oS0xUp7O3IiYGW6Z-37" target="vQN2oS0xUp7O3IiYGW6Z-33">
          <mxGeometry relative="1" as="geometry" />
        </mxCell>
        <mxCell id="vQN2oS0xUp7O3IiYGW6Z-36" value="SessionOptional" style="shape=ext;double=1;rounded=0;whiteSpace=wrap;html=1;" vertex="1" parent="1">
          <mxGeometry x="650" y="-150" width="120" height="80" as="geometry" />
        </mxCell>
        <mxCell id="vQN2oS0xUp7O3IiYGW6Z-37" value="" style="shape=umlDestroy;whiteSpace=wrap;html=1;strokeWidth=3;" vertex="1" parent="1">
          <mxGeometry x="810" y="-125" width="30" height="30" as="geometry" />
        </mxCell>
        <mxCell id="vQN2oS0xUp7O3IiYGW6Z-38" value="" style="edgeStyle=orthogonalEdgeStyle;rounded=0;orthogonalLoop=1;jettySize=auto;html=1;endArrow=none;" edge="1" parent="1" source="vQN2oS0xUp7O3IiYGW6Z-36" target="vQN2oS0xUp7O3IiYGW6Z-37">
          <mxGeometry relative="1" as="geometry">
            <mxPoint x="770" y="-110" as="sourcePoint" />
            <mxPoint x="870" y="-110" as="targetPoint" />
          </mxGeometry>
        </mxCell>
        <mxCell id="vQN2oS0xUp7O3IiYGW6Z-47" value="" style="edgeStyle=orthogonalEdgeStyle;rounded=0;orthogonalLoop=1;jettySize=auto;html=1;" edge="1" parent="1" source="vQN2oS0xUp7O3IiYGW6Z-43" target="vQN2oS0xUp7O3IiYGW6Z-46">
          <mxGeometry relative="1" as="geometry" />
        </mxCell>
        <mxCell id="vQN2oS0xUp7O3IiYGW6Z-43" value="SessionOptional" style="shape=ext;double=1;rounded=0;whiteSpace=wrap;html=1;" vertex="1" parent="1">
          <mxGeometry x="650" y="-30" width="120" height="80" as="geometry" />
        </mxCell>
        <mxCell id="vQN2oS0xUp7O3IiYGW6Z-46" value="" style="whiteSpace=wrap;html=1;rounded=0;" vertex="1" parent="1">
          <mxGeometry x="850" y="-15" width="120" height="50" as="geometry" />
        </mxCell>
      </root>
    </mxGraphModel>
  </diagram>
</mxfile>
